<svg version="1.1" xmlns="http://www.w3.org/2000/svg" viewBox="0 0 164.64945692436686 132.21419412529997" width="164.64945692436686" height="132.21419412529997">
  <!-- svg-source:excalidraw -->
  
  <defs>
    <style class="style-fonts">
      
    </style>
    
  </defs>
  <g stroke-linecap="round" transform="translate(10 41.2141941253) rotate(0 44 40.499999999999986)"><path d="M13.44 11.68 C13.44 11.68, 13.44 11.68, 13.44 11.68 M13.44 11.68 C13.44 11.68, 13.44 11.68, 13.44 11.68 M1.76 37.3 C14.91 23.38, 25.38 10.86, 32.59 1.83 M1.76 37.3 C11.95 24.99, 22 14.3, 32.59 1.83 M2.55 48.59 C18.11 28.47, 34.32 10.72, 43.88 1.04 M2.55 48.59 C11.27 38.64, 21.35 28.23, 43.88 1.04 M5.31 57.61 C22.65 35.47, 42.56 11.94, 53.85 1.76 M5.31 57.61 C21.95 37.29, 40.23 18, 53.85 1.76 M10.69 63.62 C27.5 47.48, 40.09 31.06, 62.52 3.99 M10.69 63.62 C29.83 40.52, 48.74 19.99, 62.52 3.99 M15.41 70.37 C27.88 52.24, 45.38 36.14, 68.55 9.24 M15.41 70.37 C27.45 56.96, 40.37 42.18, 68.55 9.24 M22.76 74.11 C41.84 53.27, 59.59 31.17, 74.59 14.49 M22.76 74.11 C37.07 55.88, 51.97 38.98, 74.59 14.49 M30.77 77.1 C45.56 62.94, 58.14 44.67, 80.63 19.74 M30.77 77.1 C44.3 59.73, 59.62 44.39, 80.63 19.74 M38.77 80.08 C51.1 66.08, 64.23 51.77, 84.04 28.01 M38.77 80.08 C55.03 61.74, 69.65 45, 84.04 28.01 M50.06 79.29 C61.9 64.24, 78.42 46.49, 87.46 36.27 M50.06 79.29 C64.21 63.61, 77.34 46.83, 87.46 36.27 M62.66 76.99 C69.08 67.09, 75.38 60.17, 84.97 51.33 M62.66 76.99 C68.58 70.02, 76.28 62.82, 84.97 51.33 M17.01 71.89 C17.01 71.89, 17.01 71.89, 17.01 71.89 M17.01 71.89 C17.01 71.89, 17.01 71.89, 17.01 71.89 M37.35 78.97 C25.46 67.38, 11.94 56.34, 4.9 50.76 M37.35 78.97 C25.11 67.72, 11.85 55.86, 4.9 50.76 M44.86 74.9 C32.78 65.62, 24.5 55.99, 4.11 39.48 M44.86 74.9 C33.21 65.1, 20.65 53.58, 4.11 39.48 M55.39 73.46 C38.15 58.88, 18.93 41.16, 3.32 28.19 M55.39 73.46 C42.64 62.05, 28.34 49.09, 3.32 28.19 M67.43 73.33 C52.7 61.44, 35.45 46.65, 7.81 21.5 M67.43 73.33 C47.41 57.06, 27.57 38.56, 7.81 21.5 M73.44 67.94 C50.61 49.24, 30.61 31.11, 12.31 14.8 M73.44 67.94 C55.44 52.46, 37.29 36.43, 12.31 14.8 M80.2 63.22 C60.2 48.83, 43.67 31.02, 16.8 8.11 M80.2 63.22 C62.65 47.91, 46.99 33.77, 16.8 8.11 M86.2 57.84 C68.7 40.91, 47.41 23.31, 24.31 4.04 M86.2 57.84 C71.37 46.54, 57.48 33, 24.31 4.04 M87.67 48.52 C73.13 37.49, 60.02 25.22, 31.83 -0.03 M87.67 48.52 C71.38 35.45, 56.5 21.04, 31.83 -0.03 M86.88 37.23 C76.24 27.22, 66.57 21.03, 39.34 -4.1 M86.88 37.23 C76.9 27.6, 65.94 18.26, 39.34 -4.1 M80.06 20.7 C71.33 14.4, 62.43 5.9, 52.13 -3.58 M80.06 20.7 C71.78 12.98, 61.74 5.46, 52.13 -3.58" stroke="#ffec99" stroke-width="1" fill="none"></path><path d="M60.5 2.03 C67.55 4.11, 74.39 11.48, 78.81 17.39 C83.24 23.3, 86.35 30.2, 87.05 37.49 C87.74 44.79, 86.64 54.71, 82.96 61.16 C79.29 67.61, 72.11 73.05, 64.99 76.2 C57.86 79.36, 48.18 80.79, 40.21 80.09 C32.23 79.39, 23.53 76.4, 17.15 72.02 C10.77 67.63, 4.71 60.55, 1.92 53.78 C-0.87 47.01, -1.51 38.42, 0.4 31.42 C2.3 24.42, 7.61 16.91, 13.34 11.78 C19.08 6.66, 26.79 2, 34.8 0.68 C42.81 -0.64, 56.8 3.04, 61.41 3.86 C66.02 4.68, 62.85 4.98, 62.47 5.62 M59.19 3.06 C66.55 5.28, 74.15 11.85, 79.01 17.8 C83.88 23.76, 87.91 31.48, 88.37 38.8 C88.84 46.12, 85.88 55.21, 81.82 61.71 C77.76 68.22, 70.85 74.76, 64.02 77.83 C57.2 80.91, 48.49 81.16, 40.87 80.15 C33.26 79.15, 24.54 75.94, 18.33 71.82 C12.13 67.69, 6.59 62.38, 3.64 55.41 C0.69 48.44, -0.75 37.38, 0.64 29.98 C2.03 22.58, 5.99 15.67, 11.99 11 C17.99 6.32, 28.67 3.41, 36.64 1.91 C44.6 0.41, 55.92 1.5, 59.76 2 C63.6 2.5, 60.12 4.07, 59.68 4.92" stroke="#343a40" stroke-width="2" fill="none"></path></g><g transform="translate(12.416979881340694 63.141804609482335) rotate(0 71.11623852151308 -4.493608478007701)" stroke="none"><path fill="#e03131" d="M -2.48,-3.19 Q -2.48,-3.19 -0.53,-4.86 1.41,-6.52 5.32,-8.89 9.23,-11.26 12.43,-13.22 15.64,-15.19 18.30,-16.88 20.96,-18.57 23.41,-20.13 25.86,-21.69 28.33,-23.26 30.79,-24.84 33.57,-26.73 36.34,-28.62 39.62,-30.88 42.89,-33.13 46.00,-35.36 49.10,-37.58 50.98,-39.42 52.85,-41.27 54.50,-43.01 56.16,-44.75 58.44,-47.61 60.73,-50.47 62.05,-52.62 63.38,-54.77 63.40,-55.05 63.42,-55.33 63.80,-55.84 64.19,-56.35 64.69,-56.75 65.19,-57.14 65.77,-57.41 66.36,-57.68 66.98,-57.80 67.61,-57.92 68.25,-57.89 68.89,-57.86 69.50,-57.67 70.12,-57.49 70.67,-57.16 71.22,-56.84 71.67,-56.39 72.13,-55.94 72.47,-55.40 72.80,-54.85 73.00,-54.24 73.20,-53.64 73.24,-53.00 73.28,-52.36 73.18,-51.73 73.07,-51.10 72.81,-50.51 72.55,-49.93 69.25,-45.98 65.94,-42.03 63.65,-39.29 61.35,-36.55 59.66,-34.23 57.97,-31.91 56.78,-29.20 55.59,-26.48 54.89,-24.33 54.19,-22.17 52.64,-23.73 51.09,-25.28 53.29,-27.45 55.48,-29.62 59.79,-30.72 64.10,-31.83 67.05,-32.77 69.99,-33.72 72.78,-34.89 75.58,-36.07 76.42,-36.30 77.27,-36.54 77.91,-36.64 78.56,-36.74 79.21,-36.68 79.86,-36.62 80.48,-36.41 81.10,-36.20 81.65,-35.84 82.20,-35.49 82.65,-35.01 83.09,-34.54 83.42,-33.97 83.74,-33.40 83.91,-32.77 84.09,-32.14 84.11,-31.49 84.13,-30.83 83.99,-30.19 83.86,-29.55 83.57,-28.97 83.28,-28.38 82.87,-27.88 82.45,-27.37 81.92,-26.99 81.40,-26.60 80.79,-26.35 80.19,-26.10 78.07,-23.95 75.95,-21.81 74.37,-20.19 72.79,-18.56 71.04,-16.62 69.29,-14.68 67.13,-16.89 64.97,-19.10 68.25,-19.74 71.54,-20.38 75.08,-20.41 78.63,-20.44 82.64,-20.50 86.66,-20.56 90.00,-20.86 93.34,-21.15 97.03,-21.99 100.71,-22.83 100.59,-22.79 100.47,-22.76 101.07,-22.78 101.68,-22.80 102.28,-22.67 102.87,-22.55 103.42,-22.28 103.96,-22.02 104.43,-21.63 104.90,-21.24 105.26,-20.76 105.62,-20.27 105.86,-19.71 106.09,-19.15 106.18,-18.55 106.28,-17.95 106.22,-17.34 106.17,-16.74 105.97,-16.16 105.78,-15.59 105.45,-15.08 105.12,-14.56 104.68,-14.15 104.24,-13.73 103.71,-13.43 103.18,-13.13 102.60,-12.97 102.01,-12.80 100.56,-10.98 99.10,-9.16 97.28,-7.67 95.46,-6.18 93.09,-4.32 90.72,-2.45 90.49,-2.18 90.25,-1.91 89.64,-1.60 89.04,-1.29 88.37,-1.14 87.71,-0.98 87.03,-0.99 86.35,-1.00 85.69,-1.17 85.03,-1.34 84.43,-1.67 83.83,-1.99 83.33,-2.45 82.82,-2.91 82.45,-3.48 82.07,-4.04 81.83,-4.68 81.60,-5.32 81.53,-6.00 81.45,-6.68 81.54,-7.35 81.64,-8.03 81.89,-8.66 82.14,-9.29 82.53,-9.85 82.92,-10.40 83.44,-10.85 83.95,-11.29 86.96,-12.82 89.97,-14.35 92.72,-15.35 95.47,-16.36 98.32,-17.06 101.18,-17.77 104.40,-17.62 107.62,-17.47 109.02,-12.76 110.42,-8.06 108.39,-6.13 106.36,-4.20 104.80,-2.71 103.24,-1.22 100.03,1.19 96.82,3.61 94.96,5.34 93.09,7.07 90.80,9.31 88.51,11.55 87.96,11.93 87.41,12.30 86.80,12.53 86.18,12.77 85.52,12.84 84.86,12.92 84.21,12.84 83.55,12.76 82.93,12.52 82.32,12.28 81.77,11.90 81.23,11.53 80.80,11.03 80.36,10.53 80.05,9.95 79.75,9.36 79.59,8.72 79.44,8.08 79.44,7.41 79.44,6.75 79.60,6.11 79.76,5.47 80.07,4.89 80.38,4.30 80.82,3.81 81.26,3.32 83.92,3.06 86.57,2.81 90.02,1.06 93.48,-0.68 98.12,-1.24 102.76,-1.80 105.60,-2.29 108.45,-2.78 111.19,-3.42 113.93,-4.06 114.22,-4.18 114.51,-4.29 115.13,-4.40 115.76,-4.52 116.39,-4.49 117.02,-4.45 117.63,-4.27 118.24,-4.09 118.78,-3.76 119.33,-3.44 119.78,-2.99 120.23,-2.55 120.56,-2.00 120.89,-1.46 121.08,-0.86 121.28,-0.26 121.32,0.37 121.36,1.00 121.25,1.62 121.14,2.25 120.88,2.83 120.63,3.41 120.24,3.91 119.85,4.41 119.36,4.81 118.86,5.20 118.28,5.46 117.71,5.73 118.48,5.40 119.26,5.06 118.76,5.46 118.26,5.85 117.67,6.11 117.09,6.38 116.46,6.49 115.83,6.61 115.19,6.57 114.55,6.53 113.94,6.34 113.33,6.15 112.79,5.82 112.24,5.48 111.79,5.03 111.33,4.58 111.00,4.03 110.67,3.48 110.48,2.87 110.29,2.26 110.26,1.62 110.22,0.99 110.33,0.36 110.45,-0.26 110.71,-0.85 110.97,-1.43 111.37,-1.93 111.76,-2.43 113.97,-3.71 116.18,-4.99 119.30,-6.99 122.41,-8.99 124.70,-10.20 126.99,-11.40 128.96,-12.35 130.93,-13.29 132.18,-13.81 133.44,-14.34 134.12,-14.52 134.79,-14.69 135.50,-14.70 136.20,-14.71 136.88,-14.56 137.56,-14.40 138.19,-14.08 138.82,-13.76 139.35,-13.31 139.88,-12.85 140.29,-12.28 140.69,-11.71 140.95,-11.05 141.21,-10.40 141.31,-9.71 141.40,-9.01 141.33,-8.31 141.25,-7.62 141.01,-6.96 140.77,-6.30 140.38,-5.71 139.99,-5.13 139.47,-4.66 138.96,-4.18 138.34,-3.85 137.72,-3.51 133.93,-0.47 130.13,2.56 126.76,4.69 123.38,6.83 117.99,10.30 112.60,13.77 109.32,15.98 106.03,18.19 102.96,20.43 99.90,22.68 97.87,24.36 95.84,26.04 94.79,27.27 93.74,28.51 93.27,28.79 92.80,29.07 92.28,29.24 91.75,29.40 91.20,29.43 90.65,29.46 90.11,29.36 89.57,29.26 89.07,29.03 88.57,28.80 88.14,28.46 87.71,28.12 87.37,27.69 87.03,27.25 86.81,26.75 86.58,26.25 86.48,25.71 86.39,25.17 86.42,24.62 86.46,24.07 86.62,23.54 86.79,23.02 87.08,22.55 87.36,22.08 87.75,21.69 88.14,21.30 90.68,20.97 93.21,20.64 98.29,19.55 103.37,18.45 107.98,17.13 112.60,15.80 118.45,13.54 124.30,11.28 128.26,9.59 132.23,7.90 134.80,6.68 137.37,5.47 137.52,5.46 137.68,5.45 138.12,5.33 138.56,5.21 139.01,5.20 139.47,5.19 139.91,5.29 140.36,5.39 140.76,5.59 141.17,5.79 141.52,6.09 141.87,6.38 142.14,6.75 142.40,7.12 142.57,7.54 142.75,7.96 142.81,8.41 142.88,8.86 142.83,9.31 142.79,9.77 142.64,10.20 142.48,10.63 142.23,11.01 141.99,11.39 141.65,11.70 141.32,12.01 140.92,12.23 140.52,12.45 137.41,14.60 134.29,16.74 131.39,18.08 128.49,19.41 126.06,20.63 123.63,21.85 119.22,24.27 114.80,26.69 111.97,28.37 109.13,30.06 106.08,31.96 103.03,33.85 100.34,35.55 97.66,37.24 95.28,38.71 92.90,40.18 89.73,42.24 86.56,44.30 84.51,45.39 82.46,46.48 80.09,47.96 77.72,49.43 76.82,49.60 75.93,49.77 75.03,49.64 74.13,49.52 73.31,49.11 72.50,48.70 71.86,48.06 71.22,47.41 70.82,46.59 70.42,45.78 70.30,44.88 70.18,43.97 70.36,43.08 70.53,42.19 70.98,41.40 71.43,40.61 72.11,40.00 72.79,39.40 73.63,39.04 74.47,38.69 75.37,38.62 76.28,38.55 77.16,38.77 78.04,38.99 78.81,39.49 79.57,39.98 80.14,40.69 80.71,41.40 81.02,42.26 81.33,43.11 81.35,44.02 81.37,44.93 81.10,45.80 80.83,46.67 80.29,47.41 79.76,48.14 79.02,48.67 78.28,49.20 77.41,49.46 76.53,49.72 75.63,49.69 74.72,49.67 73.86,49.35 73.01,49.03 72.31,48.46 71.60,47.89 71.11,47.12 70.63,46.35 70.41,45.46 70.19,44.58 70.27,43.67 70.35,42.77 70.71,41.93 71.08,41.10 71.69,40.43 72.30,39.75 73.09,39.31 73.89,38.86 73.88,38.86 73.88,38.86 75.64,37.98 77.39,37.10 79.68,36.28 81.98,35.45 85.16,33.90 88.34,32.34 90.68,31.06 93.02,29.78 95.62,28.19 98.23,26.60 101.27,24.47 104.31,22.33 107.37,20.34 110.42,18.34 113.13,16.91 115.85,15.48 117.82,14.60 119.79,13.71 122.39,12.56 124.98,11.42 127.55,10.35 130.12,9.29 133.90,7.37 137.68,5.45 138.12,5.33 138.56,5.21 139.01,5.20 139.47,5.19 139.91,5.29 140.36,5.39 140.76,5.59 141.17,5.79 141.52,6.09 141.87,6.38 142.14,6.75 142.40,7.12 142.57,7.54 142.75,7.96 142.81,8.41 142.88,8.86 142.83,9.31 142.79,9.77 142.64,10.20 142.48,10.63 142.24,11.01 141.99,11.39 141.65,11.70 141.32,12.01 140.92,12.23 140.52,12.45 140.15,12.39 139.77,12.34 137.40,13.14 135.02,13.94 131.04,15.92 127.07,17.90 121.10,20.58 115.14,23.25 110.46,25.09 105.78,26.93 99.76,27.72 93.74,28.51 93.27,28.79 92.80,29.07 92.28,29.24 91.75,29.40 91.20,29.43 90.65,29.46 90.11,29.36 89.57,29.26 89.07,29.03 88.57,28.80 88.14,28.46 87.71,28.12 87.37,27.69 87.03,27.25 86.81,26.75 86.58,26.25 86.48,25.71 86.39,25.17 86.42,24.62 86.46,24.07 86.62,23.54 86.79,23.02 87.07,22.55 87.36,22.08 87.75,21.69 88.14,21.30 89.49,20.33 90.83,19.36 92.97,17.91 95.10,16.47 98.13,14.01 101.16,11.56 104.29,9.05 107.42,6.54 112.37,2.61 117.32,-1.31 120.30,-3.90 123.28,-6.48 125.63,-8.41 127.98,-10.34 130.71,-12.34 133.44,-14.34 134.12,-14.52 134.79,-14.69 135.50,-14.70 136.20,-14.71 136.88,-14.56 137.56,-14.40 138.19,-14.08 138.82,-13.76 139.35,-13.31 139.88,-12.85 140.29,-12.28 140.69,-11.71 140.95,-11.05 141.21,-10.40 141.31,-9.71 141.40,-9.01 141.33,-8.31 141.25,-7.62 141.01,-6.96 140.77,-6.30 140.38,-5.71 139.99,-5.13 139.48,-4.66 138.96,-4.18 138.34,-3.85 137.72,-3.51 137.43,-3.49 137.14,-3.47 134.66,-2.51 132.19,-1.55 130.07,-0.43 127.95,0.69 126.07,1.73 124.20,2.78 121.73,3.92 119.26,5.06 118.76,5.46 118.26,5.85 117.67,6.11 117.09,6.38 116.46,6.49 115.83,6.61 115.19,6.57 114.55,6.53 113.94,6.34 113.33,6.15 112.79,5.82 112.24,5.49 111.79,5.03 111.33,4.58 111.00,4.03 110.67,3.48 110.48,2.87 110.29,2.26 110.26,1.63 110.22,0.99 110.33,0.36 110.45,-0.26 110.71,-0.84 110.97,-1.43 111.37,-1.93 111.76,-2.43 113.14,-3.36 114.51,-4.29 115.13,-4.40 115.76,-4.52 116.39,-4.49 117.02,-4.45 117.63,-4.27 118.24,-4.09 118.78,-3.76 119.33,-3.44 119.78,-2.99 120.23,-2.55 120.56,-2.01 120.89,-1.46 121.08,-0.86 121.28,-0.26 121.32,0.37 121.36,1.00 121.25,1.62 121.14,2.25 120.88,2.83 120.63,3.41 120.24,3.91 119.85,4.41 119.36,4.80 118.86,5.20 118.28,5.46 117.71,5.73 116.50,5.87 115.30,6.01 112.61,6.23 109.92,6.45 107.19,6.84 104.45,7.24 100.71,8.25 96.98,9.27 93.94,10.44 90.91,11.61 87.45,12.05 83.99,12.49 86.25,12.02 88.51,11.55 87.96,11.93 87.41,12.30 86.80,12.53 86.18,12.77 85.52,12.84 84.86,12.92 84.21,12.84 83.55,12.76 82.93,12.52 82.32,12.28 81.77,11.90 81.23,11.53 80.80,11.03 80.36,10.53 80.05,9.95 79.75,9.36 79.59,8.72 79.44,8.08 79.44,7.41 79.44,6.75 79.60,6.11 79.76,5.47 80.07,4.89 80.38,4.30 80.82,3.81 81.26,3.32 83.67,1.37 86.08,-0.56 88.06,-2.36 90.04,-4.15 92.71,-6.86 95.38,-9.56 97.07,-11.15 98.77,-12.73 100.71,-14.32 102.64,-15.92 103.26,-11.42 103.89,-6.92 101.68,-6.36 99.47,-5.81 97.17,-4.89 94.87,-3.98 92.56,-2.95 90.25,-1.91 89.65,-1.60 89.04,-1.29 88.37,-1.14 87.71,-0.98 87.03,-0.99 86.35,-1.00 85.69,-1.17 85.03,-1.34 84.43,-1.67 83.83,-1.99 83.33,-2.45 82.83,-2.91 82.45,-3.48 82.07,-4.04 81.83,-4.68 81.60,-5.32 81.53,-6.00 81.45,-6.68 81.54,-7.35 81.64,-8.03 81.88,-8.66 82.13,-9.29 82.53,-9.85 82.92,-10.40 83.44,-10.85 83.95,-11.29 84.21,-11.50 84.47,-11.71 86.67,-13.10 88.88,-14.49 90.71,-15.89 92.54,-17.28 94.35,-18.70 96.16,-20.12 98.31,-21.44 100.47,-22.76 101.07,-22.78 101.68,-22.80 102.28,-22.67 102.87,-22.55 103.42,-22.28 103.96,-22.02 104.43,-21.63 104.90,-21.24 105.26,-20.76 105.62,-20.27 105.86,-19.71 106.09,-19.15 106.18,-18.55 106.28,-17.95 106.22,-17.34 106.17,-16.74 105.97,-16.16 105.78,-15.59 105.45,-15.08 105.12,-14.56 104.68,-14.15 104.24,-13.73 103.71,-13.43 103.18,-13.13 102.60,-12.97 102.01,-12.80 100.58,-12.90 99.14,-13.01 96.73,-12.57 94.32,-12.14 90.87,-11.70 87.43,-11.27 83.39,-10.66 79.35,-10.06 75.58,-9.58 71.81,-9.10 68.48,-8.92 65.15,-8.74 62.90,-9.61 60.65,-10.47 59.18,-13.59 57.71,-16.71 59.41,-19.30 61.10,-21.89 62.99,-24.07 64.87,-26.26 68.44,-29.46 72.02,-32.67 74.64,-34.60 77.27,-36.54 77.91,-36.64 78.56,-36.74 79.21,-36.68 79.86,-36.62 80.48,-36.41 81.10,-36.20 81.65,-35.84 82.20,-35.49 82.65,-35.01 83.09,-34.54 83.42,-33.97 83.74,-33.40 83.91,-32.77 84.09,-32.14 84.11,-31.49 84.13,-30.83 83.99,-30.19 83.86,-29.55 83.57,-28.97 83.28,-28.38 82.87,-27.88 82.45,-27.37 81.92,-26.99 81.40,-26.60 80.79,-26.35 80.19,-26.10 79.61,-26.10 79.03,-26.10 76.05,-25.25 73.07,-24.40 70.23,-23.43 67.40,-22.46 63.40,-20.64 59.40,-18.83 56.66,-17.70 53.92,-16.56 49.56,-16.66 45.20,-16.76 44.26,-20.47 43.33,-24.18 44.26,-26.42 45.20,-28.67 46.47,-31.19 47.73,-33.70 49.01,-35.63 50.29,-37.55 52.05,-39.94 53.82,-42.32 55.96,-45.37 58.10,-48.41 60.76,-51.87 63.41,-55.33 63.80,-55.84 64.19,-56.35 64.69,-56.74 65.19,-57.14 65.77,-57.41 66.36,-57.68 66.98,-57.80 67.61,-57.92 68.25,-57.89 68.89,-57.86 69.50,-57.67 70.12,-57.49 70.67,-57.16 71.22,-56.84 71.67,-56.39 72.13,-55.94 72.47,-55.40 72.80,-54.85 73.00,-54.25 73.20,-53.64 73.24,-53.00 73.28,-52.36 73.18,-51.73 73.07,-51.10 72.81,-50.51 72.55,-49.93 71.42,-48.51 70.28,-47.10 67.76,-44.32 65.24,-41.53 63.64,-40.04 62.03,-38.55 60.11,-36.91 58.19,-35.28 55.89,-33.40 53.59,-31.52 50.57,-29.21 47.55,-26.91 44.34,-24.32 41.13,-21.74 38.17,-19.64 35.22,-17.54 32.64,-16.06 30.07,-14.58 27.55,-13.20 25.03,-11.81 22.34,-10.28 19.64,-8.75 16.58,-6.81 13.52,-4.88 10.10,-2.32 6.67,0.23 4.58,1.71 2.48,3.19 2.06,3.44 1.64,3.69 1.18,3.84 0.71,3.98 0.22,4.01 -0.25,4.04 -0.73,3.95 -1.21,3.86 -1.66,3.66 -2.10,3.45 -2.49,3.15 -2.87,2.85 -3.17,2.46 -3.47,2.08 -3.67,1.63 -3.87,1.19 -3.95,0.71 -4.04,0.23 -4.01,-0.25 -3.98,-0.74 -3.83,-1.21 -3.68,-1.67 -3.43,-2.09 -3.17,-2.50 -2.83,-2.85 -2.48,-3.19 -2.48,-3.19 L -2.48,-3.19 Z"></path></g><g transform="translate(30.000665230066488 77.99025001507297) rotate(0 0.00004999999998744897 0.00005000000000165983)" stroke="none"><path fill="#1e1e1e" d="M 3.14,-3.14 Q 3.14,-3.14 3.55,-2.55 3.97,-1.97 4.18,-1.28 4.40,-0.59 4.38,0.11 4.36,0.83 4.11,1.51 3.86,2.18 3.41,2.74 2.96,3.30 2.36,3.69 1.75,4.08 1.05,4.25 0.36,4.42 -0.35,4.36 -1.07,4.31 -1.73,4.02 -2.39,3.74 -2.92,3.26 -3.46,2.78 -3.81,2.15 -4.16,1.53 -4.30,0.82 -4.43,0.11 -4.34,-0.59 -4.24,-1.30 -3.92,-1.94 -3.60,-2.59 -3.09,-3.09 -2.59,-3.60 -1.94,-3.92 -1.30,-4.24 -0.59,-4.34 0.12,-4.43 0.82,-4.30 1.53,-4.16 2.15,-3.81 2.78,-3.46 3.26,-2.92 3.74,-2.39 4.02,-1.73 4.31,-1.07 4.36,-0.35 4.42,0.36 4.25,1.05 4.07,1.75 3.69,2.36 3.30,2.96 2.74,3.41 2.18,3.86 1.51,4.11 0.83,4.36 0.11,4.38 -0.60,4.40 -1.28,4.18 -1.97,3.97 -2.55,3.55 -3.14,3.13 -3.14,3.14 -3.14,3.14 -3.47,2.71 -3.80,2.29 -4.02,1.80 -4.24,1.32 -4.33,0.79 -4.43,0.26 -4.40,-0.26 -4.36,-0.80 -4.20,-1.31 -4.04,-1.82 -3.77,-2.28 -3.49,-2.73 -3.11,-3.11 -2.73,-3.49 -2.28,-3.77 -1.82,-4.05 -1.31,-4.20 -0.80,-4.36 -0.26,-4.40 0.26,-4.43 0.79,-4.33 1.32,-4.24 1.80,-4.02 2.29,-3.80 2.71,-3.47 3.14,-3.14 3.14,-3.14 L 3.14,-3.14 Z"></path></g><g transform="translate(53.83632759167244 74.86426150863284) rotate(0 0.00004999999998744897 0.00005000000000165983)" stroke="none"><path fill="#1e1e1e" d="M 3.14,-3.14 Q 3.14,-3.14 3.55,-2.55 3.97,-1.97 4.18,-1.28 4.40,-0.59 4.38,0.11 4.36,0.83 4.11,1.51 3.86,2.18 3.41,2.74 2.96,3.30 2.36,3.69 1.75,4.08 1.05,4.25 0.36,4.42 -0.35,4.36 -1.07,4.31 -1.73,4.02 -2.39,3.74 -2.92,3.26 -3.46,2.78 -3.81,2.15 -4.16,1.53 -4.30,0.82 -4.43,0.11 -4.34,-0.59 -4.24,-1.30 -3.92,-1.94 -3.60,-2.59 -3.09,-3.09 -2.59,-3.60 -1.94,-3.92 -1.30,-4.24 -0.59,-4.34 0.12,-4.43 0.82,-4.30 1.53,-4.16 2.15,-3.81 2.78,-3.46 3.26,-2.92 3.74,-2.39 4.02,-1.73 4.31,-1.07 4.36,-0.35 4.42,0.36 4.25,1.05 4.07,1.75 3.69,2.36 3.30,2.96 2.74,3.41 2.18,3.86 1.51,4.11 0.83,4.36 0.11,4.38 -0.60,4.40 -1.28,4.18 -1.97,3.97 -2.55,3.55 -3.14,3.13 -3.14,3.14 -3.14,3.14 -3.47,2.71 -3.80,2.29 -4.02,1.80 -4.24,1.32 -4.33,0.79 -4.43,0.26 -4.40,-0.26 -4.36,-0.80 -4.20,-1.31 -4.04,-1.82 -3.77,-2.28 -3.49,-2.73 -3.11,-3.11 -2.73,-3.49 -2.28,-3.77 -1.82,-4.05 -1.31,-4.20 -0.80,-4.36 -0.26,-4.40 0.26,-4.43 0.79,-4.33 1.32,-4.24 1.80,-4.02 2.29,-3.80 2.71,-3.47 3.14,-3.14 3.14,-3.14 L 3.14,-3.14 Z"></path></g><g stroke-linecap="round"><g transform="translate(44.458362072351974 69.78453018566759) rotate(0 9.768714082625479 -3.5167370697451616)"><path d="M0 0 C5.21 -1.3, 11.9 -5.27, 19.54 -7.03 M0 0 C7.71 -2.88, 15.21 -5.29, 19.54 -7.03" stroke="#1e1e1e" stroke-width="2" fill="none"></path></g></g><mask></mask><g stroke-linecap="round"><g transform="translate(21.013448274051143 67.44003880583753) rotate(0 8.596468392710335 1.7583685348725737)"><path d="M0 0 C5.15 0.46, 11.9 2.71, 17.19 3.52 M0 0 C6.36 1.49, 12.57 2.82, 17.19 3.52" stroke="#1e1e1e" stroke-width="2" fill="none"></path></g></g><mask></mask><g stroke-linecap="round"><g transform="translate(41.33237356591201 97.52767818032385) rotate(0 19.928176728555854 -0.7814971266100201)"><path d="M0 0 C12.27 -1.33, 24.51 -0.46, 39.86 -1.56 M0 0 C12.78 0.02, 24.91 -0.67, 39.86 -1.56" stroke="#1e1e1e" stroke-width="2" fill="none"></path></g></g><mask></mask></svg>
